# AST/ASF file generated using VICON BodyLanguage
# -----------------------------------------------
:version 1.10
:name VICON
:units
  mass 1.0
  length 0.45
  angle deg
:documentation
   .ast/.asf automatically generated from VICON data using
   VICON BodyBuilder and BodyLanguage model FoxedUp or BRILLIANT.MOD
:root
   order TX TY TZ RX RY RZ
   axis XYZ
   position 0 0 0  
   orientation 0 0 0 
:bonedata
  begin
     id 1 
     name lhipjoint
     direction 0.722297 -0.617336 0.311742 
     length 2.6635 
     axis 0 0 0  XYZ
  end
  begin
     id 2 
     name lfemur
     direction 0.34202 -0.939693 0  
     length 7.39349  
     axis 0 0 20  XYZ
    dof rx ry rz
    limits (-160.0 20.0)
           (-70.0 70.0)
           (-60.0 70.0)
  end
  begin
     id 3 
     name ltibia
     direction 0.34202 -0.939693 0   
     length 7.36294   
     axis 0 0 20   XYZ
    dof rx
    limits (-10.0 170.0)
  end
  begin
     id 4 
     name lfoot
     direction 0.104879 -0.288152 0.951824   
     length 2.16981   
     axis -90 7.62852e-016 20   XYZ
    dof rx rz
    limits (-45.0 90.0)
           (-70.0 20.0)
  end
  begin
     id 5 
     name ltoes
     direction 1.53586e-011 -4.21895e-011 1   
     length 1.08218   
     axis -90 7.62852e-016 20   XYZ
    dof rx
    limits (-90.0 20.0)
  end
  begin
     id 6 
     name rhipjoint
     direction -0.75102 -0.589393 0.297631   
     length 2.78977  
     axis 0 0 0  XYZ 
  end
  begin
     id 7 
     name rfemur
     direction -0.34202 -0.939693 0   
     length 7.46076   
     axis 0 0 -20   XYZ
    dof rx ry rz
    limits (-160.0 20.0)
           (-70.0 70.0)
           (-70.0 60.0)
  end
  begin
     id 8 
     name rtibia
     direction -0.34202 -0.939693 0   
     length 7.31726   
     axis 0 0 -20   XYZ
    dof rx
    limits (-10.0 170.0)
 end
 begin
     id 9 
     name rfoot
     direction -0.107991 -0.296704 0.948844   
     length 2.09388  
     axis -90 -7.62852e-016 -20   XYZ
    dof rx rz
    limits (-45.0 90.0)
           (-20.0 70.0)
  end
  begin
     id 10 
     name rtoes
     direction -1.53559e-011 -4.21911e-011 1   
     length 1.04433   
     axis -90 -7.62852e-016 -20   XYZ
    dof rx
    limits (-90.0 20.0)
  end
  begin
     id 11 
     name lowerback
     direction 0.0165164 0.98272 0.184358   
     length 1.71896   
     axis 0 0 0   XYZ
    dof rx ry rz
    limits (-20.0 45.0)
           (-30.0 30.0)
           (-30.0 30.0)
  end
  begin
     id 12 
     name upperback
     direction -0.00887249 0.992297 0.123566   
     length 1.71504   
     axis 0 0 0   XYZ
    dof rx ry rz
    limits (-20.0 45.0)
           (-30.0 30.0)
           (-30.0 30.0)
  end
  begin
     id 13 
     name thorax
     direction -0.0157026 0.998908 0.0440032   
     length 1.77022   
     axis 0 0 0   XYZ
    dof rx ry rz
    limits (-20.0 45.0)
           (-30.0 30.0)
           (-30.0 30.0)
  end
  begin
     id 14 
     name lowerneck
     direction -0.0238856 0.998137 0.0561411   
     length 1.89341   
     axis 0 0 0   XYZ
    dof rx ry rz
    limits (-20.0 45.0)
           (-30.0 30.0)
           (-30.0 30.0)
  end
  begin
     id 15 
     name upperneck
     direction 0.0276574 0.952253 -0.304056   
     length 1.86999   
     axis 0 0 0   XYZ
    dof rx ry rz
    limits (-20.0 45.0)
           (-30.0 30.0)
           (-30.0 30.0)
  end
  begin
     id 16
     name head
     direction 0.00800083 0.994258 -0.106712  
     length 1.91492  
     axis 0 0 0   XYZ
    dof rx ry rz
    limits (-20.0 45.0)
           (-30.0 30.0)
           (-30.0 30.0)
  end
  begin
     id 17 
     name lclavicle
     direction 0.97203 0.225407 0.06595  
     length 3.34889  
     axis 0 0 0   XYZ
    dof ry rz
    limits (-20.0 10.0)
           (0.0 20.0)
  end
  begin
     id 18 
     name lhumerus
     direction 1 -4.48973e-011 2.20267e-027   
     length 4.85645   
     axis 180 -30 -90   XYZ
    dof rx ry rz
    limits (-60.0 90.0)
           (-90.0 90.0)
           (-90.0 90.0)
  end
  begin
     id 19
     name lradius
     direction 1 -4.4897e-011 4.60472e-027   
     length 2.79874   
     axis 180 -30 -90   XYZ
    dof rx
    limits (-10.0 170.0)
  end
  begin
     id 20
     name lwrist
     direction 1 -4.48952e-011 1.14928e-026   
     length 1.39937   
     axis -6.29373e-015 90 90   XYZ
    dof ry
    limits (-180.0 0.0)
 end
  begin
     id 21 
     name lhand
     direction 1 -4.48967e-011 2.29886e-026   
     length 0.573398   
     axis -1.46689e-014 90 90   XYZ
    dof rx rz
    limits (-90.0 90.0)
           (-45.0 45.0)
  end
  begin
     id 22 
     name lfingers
     direction 1 -4.48955e-011 4.59726e-026   
     length 0.462289   
     axis -2.93383e-014 90 90   XYZ
    dof rx
    limits (0.0 90.0)
  end
  begin
     id 23
     name lthumb
     direction 0.707107 -6.34866e-011 0.707107   
     length 0.663757   
     axis -90 45 5.69224e-014   XYZ
    dof rx rz
    limits (-45.0 45.0)
           (-45.0 45.0)
  end
  begin
     id 24 
     name rclavicle
     direction -0.981571 0.157346 0.108443   
     length 3.35257  
     axis 0 0 0   XYZ 
    dof ry rz
    limits (-10.0 20.0)
           (-20.0 0.0)
  end
  begin
     id 25 
     name rhumerus
     direction -1 -4.48967e-011 8.58308e-029  
     length 4.67018   
     axis 180 30 90   XYZ
    dof rx ry rz
    limits (-90.0 60.0)
           (-90.0 90.0)
           (-90.0 90.0)
  end
  begin
     id 26 
     name rradius
     direction -1 -4.48958e-011 4.52548e-027   
     length 2.65534   
     axis 180 30 90   XYZ
    dof rx
    limits (-10.0 170.0)
  end
  begin
     id 27 
     name rwrist
     direction -1 -4.48977e-011 1.14952e-026   
     length 1.32767   
     axis -6.29373e-015 -90 -90   XYZ
    dof ry
    limits (-180.0 0.0)
  end
  begin
     id 28
     name rhand
     direction -1 -4.48924e-011 2.29804e-026   
     length 0.594069   
     axis -1.46689e-014 -90 -90   XYZ
    dof rx rz
    limits (-90.0 90.0)
           (-45.0 45.0)
  end
  begin
     id 29
     name rfingers
     direction -1 -4.48998e-011 4.59888e-026   
     length 0.478954   
     axis -2.93383e-014 -90 -90   XYZ
    dof rx
    limits (0.0 90.0)
  end
  begin
     id 30
     name rthumb
     direction -0.707107 -6.34933e-011 0.707107   
     length 0.687685   
     axis -90 -45 -5.69224e-014   XYZ
    dof rx rz
    limits (-45.0 45.0)
           (-45.0 45.0)
  end
:hierarchy
  begin
    root lhipjoint rhipjoint lowerback
    lhipjoint lfemur
    lfemur ltibia
    ltibia lfoot
    lfoot ltoes
    rhipjoint rfemur
    rfemur rtibia
    rtibia rfoot
    rfoot rtoes
    lowerback upperback
    upperback thorax
    thorax lowerneck lclavicle rclavicle
    lowerneck upperneck
    upperneck head
    lclavicle lhumerus
    lhumerus lradius
    lradius lwrist
    lwrist lhand lthumb
    lhand lfingers
    rclavicle rhumerus
    rhumerus rradius
    rradius rwrist
    rwrist rhand rthumb
    rhand rfingers
  end

#!OML:ASF E:\pregnant2\Project 1\Capture day 1\Session 1\pregnant2.ASF
:FULLY-SPECIFIED
:DEGREES
491
root 4.20724 17.1418 44.6667 29.7705 14.4633 -1.07926
lowerback -15.7909 0.874589 1.47456
upperback -13.9766 1.1666 -0.32701
thorax -6.12181 0.529054 -1.06336
lowerneck -6.14779 15.4921 20.1894
upperneck 23.9752 19.9254 -3.90761
head 11.2868 10.6346 -1.81429
rclavicle -4.60062e-014 -1.68967e-014
rhumerus -86.5042 25.9182 -103.723
rradius 97.6669
rwrist -22.0755
rhand -1.26424 -13.7776
rfingers 7.12502
rthumb 24.3789 -42.2468
lclavicle -4.60062e-014 -1.68967e-014
lhumerus -83.6685 -43.3088 110.778
lradius 96.1187
lwrist 21.0821
lhand 1.47443 26.2345
lfingers 7.12502
lthumb 27.0019 54.3246
rfemur -35.9718 14.3014 14.7551
rtibia 20.0965
rfoot -13.275 -17.4104
rtoes -3.17726
lfemur -37.8934 -14.7896 -14.8648
ltibia 21.0721
lfoot -6.90513 18.4676
ltoes -16.2099
492
root 4.20438 17.142 44.6669 29.7633 14.5019 -1.07865
lowerback -15.8032 0.868909 1.42216
upperback -13.9955 1.16582 -0.315511
thorax -6.13768 0.533843 -1.02201
lowerneck -6.09699 15.4812 20.2223
upperneck 24.0083 19.8955 -3.8221
head 11.2811 10.6347 -1.79731
rclavicle -2.1183e-014 -9.98893e-015
rhumerus -86.3584 25.5119 -103.484
rradius 97.7906
rwrist -22.8105
rhand -1.47781 -14.0749
rfingers 7.12502
rthumb 24.1742 -42.5715
lclavicle -2.1183e-014 -9.98893e-015
lhumerus -83.6816 -43.1369 110.94
lradius 96.0389
lwrist 21.3785
lhand 1.66641 26.1094
lfingers 7.12502
lthumb 27.1855 54.1709
rfemur -35.9374 14.1751 14.8277
rtibia 20.0762
rfoot -13.275 -17.2824
rtoes -3.20397
lfemur -37.895 -14.8172 -14.8398
ltibia 21.0744
lfoot -6.897 18.4804
ltoes -16.2186
493
root 4.20166 17.1423 44.667 29.7561 14.5451 -1.0771
lowerback -15.8149 0.863999 1.37208
upperback -14.015 1.1659 -0.304586
thorax -6.15453 0.538879 -0.982509
lowerneck -6.04542 15.4666 20.2481
upperneck 24.0369 19.8626 -3.7412
head 11.2728 10.6324 -1.78192
rclavicle 5.44049e-014 -1.57537e-014
rhumerus -86.2047 25.1388 -103.201
rradius 97.899
rwrist -23.4213
rhand -1.64281 -14.2083
rfingers 7.12502
rthumb 24.0159 -42.7258
lclavicle 5.44049e-014 -1.57537e-014
lhumerus -83.676 -42.9801 111.078
lradius 95.9666
lwrist 21.8112
lhand 1.85328 25.9698
lfingers 7.12502
lthumb 27.3643 54.0032
rfemur -35.9024 14.0898 14.8794
rtibia 20.0518
rfoot -13.2803 -17.2015
rtoes -3.21704
lfemur -37.896 -14.8464 -14.8154
ltibia 21.0746
lfoot -6.88826 18.4904
ltoes -16.2252
494
root 4.19924 17.1426 44.667 29.7483 14.6003 -1.07601
lowerback -15.8279 0.859434 1.3322
upperback -14.0337 1.16539 -0.295067
thorax -6.16961 0.542763 -0.950233
lowerneck -5.99208 15.4486 20.2713
upperneck 24.0609 19.8286 -3.67135
head 11.2631 10.6284 -1.77059
rclavicle 5.68462e-014 -1.66979e-014
rhumerus -86.0453 24.8009 -102.885
rradius 97.9792
rwrist -23.8151
rhand -1.72046 -14.1664
rfingers 7.12502
rthumb 23.9415 -42.6937
lclavicle 5.68462e-014 -1.66979e-014
lhumerus -83.6543 -42.8418 111.191
lradius 95.906
lwrist 22.3899
lhand 2.01508 25.805
lfingers 7.12502
lthumb 27.519 53.8139
rfemur -35.8655 14.0597 14.905
rtibia 20.0208
rfoot -13.2922 -17.1886
rtoes -3.20239
lfemur -37.8987 -14.8757 -14.791
ltibia 21.0751
lfoot -6.87824 18.4896
ltoes -16.2476
495
root 4.19695 17.143 44.6671 29.7375 14.666 -1.07549
lowerback -15.8441 0.854272 1.29907
upperback -14.0487 1.16333 -0.285435
thorax -6.17892 0.545386 -0.921674
lowerneck -5.92933 15.4282 20.2996
upperneck 24.0699 19.7979 -3.62573
head 11.2497 10.6239 -1.76889
rclavicle -6.73383e-015 -1.19768e-014
rhumerus -85.88 24.5041 -102.544
rradius 98.0259
rwrist -23.9706
rhand -1.70068 -13.9681
rfingers 7.12502
rthumb 23.9604 -42.4929
lclavicle -6.73383e-015 -1.19768e-014
lhumerus -83.6105 -42.7211 111.271
lradius 95.8579
lwrist 23.08
lhand 2.21116 25.6391
lfingers 7.12502
lthumb 27.7065 53.618
rfemur -35.8225 14.0614 14.9177
rtibia 19.9836
rfoot -13.3084 -17.2165
rtoes -3.16727
lfemur -37.9004 -14.9072 -14.7648
ltibia 21.0766
lfoot -6.86914 18.4824
ltoes -16.2676
496
root 4.19493 17.1433 44.667 29.7175 14.7479 -1.08035
lowerback -15.8597 0.847459 1.28224
upperback -14.0593 1.1574 -0.274371
thorax -6.18339 0.544808 -0.901048
lowerneck -5.85763 15.4036 20.3248
upperneck 24.0687 19.7669 -3.59381
head 11.2318 10.6178 -1.77276
rclavicle 7.41529e-014 5.71506e-015
rhumerus -85.7127 24.2557 -102.195
rradius 98.0437
rwrist -23.9386
rhand -1.59174 -13.6655
rfingers 7.12502
rthumb 24.0649 -42.1766
lclavicle 7.41529e-014 5.71506e-015
lhumerus -83.5486 -42.6118 111.317
lradius 95.8228
lwrist 23.8421
lhand 2.44946 25.4946
lfingers 7.12502
lthumb 27.9344 53.4367
rfemur -35.7667 14.0734 14.9359
rtibia 19.9418
rfoot -13.3273 -17.2675
rtoes -3.11919
lfemur -37.895 -14.9391 -14.7347
ltibia 21.0809
lfoot -6.86743 18.463
ltoes -16.2839
